<?xml version="1.0" encoding="UTF-8" standalone="no"?>
<!DOCTYPE svg PUBLIC "-//W3C//DTD SVG 1.1//EN"
 "http://www.w3.org/Graphics/SVG/1.1/DTD/svg11.dtd">
<!-- Generated by graphviz version 7.1.0 (0)
 -->
<!-- Pages: 1 -->
<svg width="1606pt" height="210pt"
 viewBox="0.00 0.00 1605.87 210.00" xmlns="http://www.w3.org/2000/svg" xmlns:xlink="http://www.w3.org/1999/xlink">
<g id="graph0" class="graph" transform="scale(1 1) rotate(0) translate(4 206)">
<polygon fill="white" stroke="none" points="-4,4 -4,-206 1601.87,-206 1601.87,4 -4,4"/>
<!-- 4803228240 -->
<g id="node1" class="node">
<title>4803228240</title>
<path fill="lavender" stroke="lavender" d="M726.5,-137.5C726.5,-137.5 901.5,-137.5 901.5,-137.5 907.5,-137.5 913.5,-143.5 913.5,-149.5 913.5,-149.5 913.5,-161.5 913.5,-161.5 913.5,-167.5 907.5,-173.5 901.5,-173.5 901.5,-173.5 726.5,-173.5 726.5,-173.5 720.5,-173.5 714.5,-167.5 714.5,-161.5 714.5,-161.5 714.5,-149.5 714.5,-149.5 714.5,-143.5 720.5,-137.5 726.5,-137.5"/>
<text text-anchor="middle" x="768" y="-152.4" font-family="Monospace" font-size="12.00">b: data 6.88</text>
<polyline fill="none" stroke="lavender" points="821.5,-137.5 821.5,-173.5"/>
<text text-anchor="middle" x="867.5" y="-152.4" font-family="Monospace" font-size="12.00">grad 0.500</text>
</g>
<!-- 4800802672+ -->
<g id="node13" class="node">
<title>4800802672+</title>
<ellipse fill="lemonchiffon" stroke="lemonchiffon" cx="1016" cy="-127.5" rx="18" ry="18"/>
<text text-anchor="middle" x="1016" y="-124.4" font-family="Monospace" font-size="12.00">+</text>
</g>
<!-- 4803228240&#45;&gt;4800802672+ -->
<g id="edge7" class="edge">
<title>4803228240&#45;&gt;4800802672+</title>
<path fill="none" stroke="black" d="M913.24,-141.75C940.88,-137.88 968.69,-133.98 988.24,-131.25"/>
<polygon fill="black" stroke="black" points="997.93,-129.89 988.65,-135.73 992.97,-130.58 988.02,-131.28 988.02,-131.28 988.02,-131.28 992.97,-130.58 987.4,-126.82 997.93,-129.89 997.93,-129.89"/>
</g>
<!-- 4802369616 -->
<g id="node2" class="node">
<title>4802369616</title>
<path fill="lavender" stroke="lavender" d="M16,-55.5C16,-55.5 198,-55.5 198,-55.5 204,-55.5 210,-61.5 210,-67.5 210,-67.5 210,-79.5 210,-79.5 210,-85.5 204,-91.5 198,-91.5 198,-91.5 16,-91.5 16,-91.5 10,-91.5 4,-85.5 4,-79.5 4,-79.5 4,-67.5 4,-67.5 4,-61.5 10,-55.5 16,-55.5"/>
<text text-anchor="middle" x="61" y="-70.4" font-family="Monospace" font-size="12.00">w2: data 1.00</text>
<polyline fill="none" stroke="lavender" points="118,-55.5 118,-91.5"/>
<text text-anchor="middle" x="164" y="-70.4" font-family="Monospace" font-size="12.00">grad 0.000</text>
</g>
<!-- 4800851248x -->
<g id="node10" class="node">
<title>4800851248x</title>
<ellipse fill="lemonchiffon" stroke="lemonchiffon" cx="268" cy="-73.5" rx="18" ry="18"/>
<text text-anchor="middle" x="268" y="-70.4" font-family="Monospace" font-size="12.00">x</text>
</g>
<!-- 4802369616&#45;&gt;4800851248x -->
<g id="edge10" class="edge">
<title>4802369616&#45;&gt;4800851248x</title>
<path fill="none" stroke="black" d="M209.6,-73.5C220.67,-73.5 231.13,-73.5 240.01,-73.5"/>
<polygon fill="black" stroke="black" points="249.98,-73.5 239.98,-78 244.98,-73.5 239.98,-73.5 239.98,-73.5 239.98,-73.5 244.98,-73.5 239.98,-69 249.98,-73.5 249.98,-73.5"/>
</g>
<!-- 4803415152 -->
<g id="node3" class="node">
<title>4803415152</title>
<path fill="lavender" stroke="lavender" d="M678,-82.5C678,-82.5 950,-82.5 950,-82.5 956,-82.5 962,-88.5 962,-94.5 962,-94.5 962,-106.5 962,-106.5 962,-112.5 956,-118.5 950,-118.5 950,-118.5 678,-118.5 678,-118.5 672,-118.5 666,-112.5 666,-106.5 666,-106.5 666,-94.5 666,-94.5 666,-88.5 672,-82.5 678,-82.5"/>
<text text-anchor="middle" x="768" y="-97.4" font-family="Monospace" font-size="12.00">x1*w1 + x2*w2: data &#45;6.00</text>
<polyline fill="none" stroke="lavender" points="870,-82.5 870,-118.5"/>
<text text-anchor="middle" x="916" y="-97.4" font-family="Monospace" font-size="12.00">grad 0.500</text>
</g>
<!-- 4803415152&#45;&gt;4800802672+ -->
<g id="edge13" class="edge">
<title>4803415152&#45;&gt;4800802672+</title>
<path fill="none" stroke="black" d="M948.12,-118.47C963.05,-120.49 976.87,-122.35 988.03,-123.86"/>
<polygon fill="black" stroke="black" points="997.85,-125.19 987.34,-128.31 992.9,-124.52 987.94,-123.85 987.94,-123.85 987.94,-123.85 992.9,-124.52 988.55,-119.39 997.85,-125.19 997.85,-125.19"/>
</g>
<!-- 4803415152+ -->
<g id="node4" class="node">
<title>4803415152+</title>
<ellipse fill="lemonchiffon" stroke="lemonchiffon" cx="612" cy="-100.5" rx="18" ry="18"/>
<text text-anchor="middle" x="612" y="-97.4" font-family="Monospace" font-size="12.00">+</text>
</g>
<!-- 4803415152+&#45;&gt;4803415152 -->
<g id="edge1" class="edge">
<title>4803415152+&#45;&gt;4803415152</title>
<path fill="none" stroke="black" d="M630.4,-100.5C637.46,-100.5 646.31,-100.5 656.29,-100.5"/>
<polygon fill="black" stroke="black" points="666.18,-100.5 656.18,-105 661.18,-100.5 656.18,-100.5 656.18,-100.5 656.18,-100.5 661.18,-100.5 656.18,-96 666.18,-100.5 666.18,-100.5"/>
</g>
<!-- 4802369184 -->
<g id="node5" class="node">
<title>4802369184</title>
<path fill="lavender" stroke="lavender" d="M12,-165.5C12,-165.5 202,-165.5 202,-165.5 208,-165.5 214,-171.5 214,-177.5 214,-177.5 214,-189.5 214,-189.5 214,-195.5 208,-201.5 202,-201.5 202,-201.5 12,-201.5 12,-201.5 6,-201.5 0,-195.5 0,-189.5 0,-189.5 0,-177.5 0,-177.5 0,-171.5 6,-165.5 12,-165.5"/>
<text text-anchor="middle" x="61" y="-180.4" font-family="Monospace" font-size="12.00">w1: data &#45;3.00</text>
<polyline fill="none" stroke="lavender" points="122,-165.5 122,-201.5"/>
<text text-anchor="middle" x="168" y="-180.4" font-family="Monospace" font-size="12.00">grad 1.000</text>
</g>
<!-- 4800850720x -->
<g id="node8" class="node">
<title>4800850720x</title>
<ellipse fill="lemonchiffon" stroke="lemonchiffon" cx="268" cy="-128.5" rx="18" ry="18"/>
<text text-anchor="middle" x="268" y="-125.4" font-family="Monospace" font-size="12.00">x</text>
</g>
<!-- 4802369184&#45;&gt;4800850720x -->
<g id="edge11" class="edge">
<title>4802369184&#45;&gt;4800850720x</title>
<path fill="none" stroke="black" d="M187.09,-165.57C196.26,-162.84 205.41,-159.81 214,-156.5 224.05,-152.63 234.64,-147.31 243.68,-142.35"/>
<polygon fill="black" stroke="black" points="252.14,-137.57 245.65,-146.41 247.79,-140.03 243.43,-142.49 243.43,-142.49 243.43,-142.49 247.79,-140.03 241.22,-138.57 252.14,-137.57 252.14,-137.57"/>
</g>
<!-- 4802069168 -->
<g id="node6" class="node">
<title>4802069168</title>
<path fill="lavender" stroke="lavender" d="M16,-0.5C16,-0.5 198,-0.5 198,-0.5 204,-0.5 210,-6.5 210,-12.5 210,-12.5 210,-24.5 210,-24.5 210,-30.5 204,-36.5 198,-36.5 198,-36.5 16,-36.5 16,-36.5 10,-36.5 4,-30.5 4,-24.5 4,-24.5 4,-12.5 4,-12.5 4,-6.5 10,-0.5 16,-0.5"/>
<text text-anchor="middle" x="61" y="-15.4" font-family="Monospace" font-size="12.00">x2: data 0.00</text>
<polyline fill="none" stroke="lavender" points="118,-0.5 118,-36.5"/>
<text text-anchor="middle" x="164" y="-15.4" font-family="Monospace" font-size="12.00">grad 0.500</text>
</g>
<!-- 4802069168&#45;&gt;4800851248x -->
<g id="edge6" class="edge">
<title>4802069168&#45;&gt;4800851248x</title>
<path fill="none" stroke="black" d="M183.9,-36.44C194.13,-39.47 204.4,-42.83 214,-46.5 223.88,-50.27 234.34,-55.35 243.33,-60.08"/>
<polygon fill="black" stroke="black" points="252.08,-64.82 241.15,-64.02 247.69,-62.44 243.29,-60.06 243.29,-60.06 243.29,-60.06 247.69,-62.44 245.43,-56.1 252.08,-64.82 252.08,-64.82"/>
</g>
<!-- 4800850720 -->
<g id="node7" class="node">
<title>4800850720</title>
<path fill="lavender" stroke="lavender" d="M334,-110.5C334,-110.5 546,-110.5 546,-110.5 552,-110.5 558,-116.5 558,-122.5 558,-122.5 558,-134.5 558,-134.5 558,-140.5 552,-146.5 546,-146.5 546,-146.5 334,-146.5 334,-146.5 328,-146.5 322,-140.5 322,-134.5 322,-134.5 322,-122.5 322,-122.5 322,-116.5 328,-110.5 334,-110.5"/>
<text text-anchor="middle" x="394" y="-125.4" font-family="Monospace" font-size="12.00">x1*w1: data &#45;6.00</text>
<polyline fill="none" stroke="lavender" points="466,-110.5 466,-146.5"/>
<text text-anchor="middle" x="512" y="-125.4" font-family="Monospace" font-size="12.00">grad 0.500</text>
</g>
<!-- 4800850720&#45;&gt;4803415152+ -->
<g id="edge14" class="edge">
<title>4800850720&#45;&gt;4803415152+</title>
<path fill="none" stroke="black" d="M550.11,-110.53C562.55,-108.48 574.24,-106.56 583.98,-104.95"/>
<polygon fill="black" stroke="black" points="593.74,-103.34 584.6,-109.41 588.81,-104.16 583.87,-104.97 583.87,-104.97 583.87,-104.97 588.81,-104.16 583.14,-100.53 593.74,-103.34 593.74,-103.34"/>
</g>
<!-- 4800850720x&#45;&gt;4800850720 -->
<g id="edge2" class="edge">
<title>4800850720x&#45;&gt;4800850720</title>
<path fill="none" stroke="black" d="M286.24,-128.5C293.4,-128.5 302.39,-128.5 312.4,-128.5"/>
<polygon fill="black" stroke="black" points="322.28,-128.5 312.28,-133 317.28,-128.5 312.28,-128.5 312.28,-128.5 312.28,-128.5 317.28,-128.5 312.28,-124 322.28,-128.5 322.28,-128.5"/>
</g>
<!-- 4800851248 -->
<g id="node9" class="node">
<title>4800851248</title>
<path fill="lavender" stroke="lavender" d="M337.5,-55.5C337.5,-55.5 542.5,-55.5 542.5,-55.5 548.5,-55.5 554.5,-61.5 554.5,-67.5 554.5,-67.5 554.5,-79.5 554.5,-79.5 554.5,-85.5 548.5,-91.5 542.5,-91.5 542.5,-91.5 337.5,-91.5 337.5,-91.5 331.5,-91.5 325.5,-85.5 325.5,-79.5 325.5,-79.5 325.5,-67.5 325.5,-67.5 325.5,-61.5 331.5,-55.5 337.5,-55.5"/>
<text text-anchor="middle" x="394" y="-70.4" font-family="Monospace" font-size="12.00">x2*w2: data 0.00</text>
<polyline fill="none" stroke="lavender" points="462.5,-55.5 462.5,-91.5"/>
<text text-anchor="middle" x="508.5" y="-70.4" font-family="Monospace" font-size="12.00">grad 0.500</text>
</g>
<!-- 4800851248&#45;&gt;4803415152+ -->
<g id="edge9" class="edge">
<title>4800851248&#45;&gt;4803415152+</title>
<path fill="none" stroke="black" d="M553.92,-91.43C564.91,-93.18 575.19,-94.81 583.93,-96.2"/>
<polygon fill="black" stroke="black" points="593.75,-97.76 583.16,-100.64 588.81,-96.98 583.87,-96.19 583.87,-96.19 583.87,-96.19 588.81,-96.98 584.58,-91.75 593.75,-97.76 593.75,-97.76"/>
</g>
<!-- 4800851248x&#45;&gt;4800851248 -->
<g id="edge3" class="edge">
<title>4800851248x&#45;&gt;4800851248</title>
<path fill="none" stroke="black" d="M286.24,-73.5C294.22,-73.5 304.46,-73.5 315.85,-73.5"/>
<polygon fill="black" stroke="black" points="325.67,-73.5 315.67,-78 320.67,-73.5 315.67,-73.5 315.67,-73.5 315.67,-73.5 320.67,-73.5 315.67,-69 325.67,-73.5 325.67,-73.5"/>
</g>
<!-- 4802370912 -->
<g id="node11" class="node">
<title>4802370912</title>
<path fill="lavender" stroke="lavender" d="M12.5,-110.5C12.5,-110.5 201.5,-110.5 201.5,-110.5 207.5,-110.5 213.5,-116.5 213.5,-122.5 213.5,-122.5 213.5,-134.5 213.5,-134.5 213.5,-140.5 207.5,-146.5 201.5,-146.5 201.5,-146.5 12.5,-146.5 12.5,-146.5 6.5,-146.5 0.5,-140.5 0.5,-134.5 0.5,-134.5 0.5,-122.5 0.5,-122.5 0.5,-116.5 6.5,-110.5 12.5,-110.5"/>
<text text-anchor="middle" x="57.5" y="-125.4" font-family="Monospace" font-size="12.00">x1: data 2.00</text>
<polyline fill="none" stroke="lavender" points="114.5,-110.5 114.5,-146.5"/>
<text text-anchor="middle" x="164" y="-125.4" font-family="Monospace" font-size="12.00">grad &#45;1.500</text>
</g>
<!-- 4802370912&#45;&gt;4800850720x -->
<g id="edge12" class="edge">
<title>4802370912&#45;&gt;4800850720x</title>
<path fill="none" stroke="black" d="M213.17,-128.5C222.86,-128.5 231.98,-128.5 239.86,-128.5"/>
<polygon fill="black" stroke="black" points="249.78,-128.5 239.78,-133 244.78,-128.5 239.78,-128.5 239.78,-128.5 239.78,-128.5 244.78,-128.5 239.78,-124 249.78,-128.5 249.78,-128.5"/>
</g>
<!-- 4800802672 -->
<g id="node12" class="node">
<title>4800802672</title>
<path fill="lavender" stroke="lavender" d="M1082,-109.5C1082,-109.5 1257,-109.5 1257,-109.5 1263,-109.5 1269,-115.5 1269,-121.5 1269,-121.5 1269,-133.5 1269,-133.5 1269,-139.5 1263,-145.5 1257,-145.5 1257,-145.5 1082,-145.5 1082,-145.5 1076,-145.5 1070,-139.5 1070,-133.5 1070,-133.5 1070,-121.5 1070,-121.5 1070,-115.5 1076,-109.5 1082,-109.5"/>
<text text-anchor="middle" x="1123.5" y="-124.4" font-family="Monospace" font-size="12.00">n: data 0.88</text>
<polyline fill="none" stroke="lavender" points="1177,-109.5 1177,-145.5"/>
<text text-anchor="middle" x="1223" y="-124.4" font-family="Monospace" font-size="12.00">grad 0.500</text>
</g>
<!-- 4803388848tanh -->
<g id="node15" class="node">
<title>4803388848tanh</title>
<ellipse fill="lemonchiffon" stroke="lemonchiffon" cx="1333.93" cy="-127.5" rx="28.87" ry="28.87"/>
<text text-anchor="middle" x="1333.93" y="-124.4" font-family="Monospace" font-size="12.00">tanh</text>
</g>
<!-- 4800802672&#45;&gt;4803388848tanh -->
<g id="edge8" class="edge">
<title>4800802672&#45;&gt;4803388848tanh</title>
<path fill="none" stroke="black" d="M1268.73,-127.5C1277.94,-127.5 1286.84,-127.5 1294.94,-127.5"/>
<polygon fill="black" stroke="black" points="1304.72,-127.5 1294.72,-132 1299.72,-127.5 1294.72,-127.5 1294.72,-127.5 1294.72,-127.5 1299.72,-127.5 1294.72,-123 1304.72,-127.5 1304.72,-127.5"/>
</g>
<!-- 4800802672+&#45;&gt;4800802672 -->
<g id="edge4" class="edge">
<title>4800802672+&#45;&gt;4800802672</title>
<path fill="none" stroke="black" d="M1034.38,-127.5C1041.56,-127.5 1050.53,-127.5 1060.39,-127.5"/>
<polygon fill="black" stroke="black" points="1070.1,-127.5 1060.1,-132 1065.1,-127.5 1060.1,-127.5 1060.1,-127.5 1060.1,-127.5 1065.1,-127.5 1060.1,-123 1070.1,-127.5 1070.1,-127.5"/>
</g>
<!-- 4803388848 -->
<g id="node14" class="node">
<title>4803388848</title>
<path fill="lavender" stroke="lavender" d="M1410.87,-109.5C1410.87,-109.5 1585.87,-109.5 1585.87,-109.5 1591.87,-109.5 1597.87,-115.5 1597.87,-121.5 1597.87,-121.5 1597.87,-133.5 1597.87,-133.5 1597.87,-139.5 1591.87,-145.5 1585.87,-145.5 1585.87,-145.5 1410.87,-145.5 1410.87,-145.5 1404.87,-145.5 1398.87,-139.5 1398.87,-133.5 1398.87,-133.5 1398.87,-121.5 1398.87,-121.5 1398.87,-115.5 1404.87,-109.5 1410.87,-109.5"/>
<text text-anchor="middle" x="1452.37" y="-124.4" font-family="Monospace" font-size="12.00">o: data 0.71</text>
<polyline fill="none" stroke="lavender" points="1505.87,-109.5 1505.87,-145.5"/>
<text text-anchor="middle" x="1551.87" y="-124.4" font-family="Monospace" font-size="12.00">grad 1.000</text>
</g>
<!-- 4803388848tanh&#45;&gt;4803388848 -->
<g id="edge5" class="edge">
<title>4803388848tanh&#45;&gt;4803388848</title>
<path fill="none" stroke="black" d="M1363.23,-127.5C1370.92,-127.5 1379.73,-127.5 1389.08,-127.5"/>
<polygon fill="black" stroke="black" points="1399,-127.5 1389,-132 1394,-127.5 1389,-127.5 1389,-127.5 1389,-127.5 1394,-127.5 1389,-123 1399,-127.5 1399,-127.5"/>
</g>
</g>
</svg>
